<svg xmlns="http://www.w3.org/2000/svg" xmlns:xlink="http://www.w3.org/1999/xlink" xmlns:lucid="lucid" width="1527.85" height="588"><g transform="translate(-1158.1130100096163 -299.5)" lucid:page-tab-id="0_0"><path d="M1000 0h2000v1000H1000z" fill="#fff"/><path d="M1178.6 335.57a6 6 0 0 1 6-6h234.35a6 6 0 0 1 6 6v235a6 6 0 0 1-6 6H1184.6a6 6 0 0 1-6-6z" stroke="#3a414a" fill="#fff"/><path d="M1178.6 371.97h246.35m-246.34 102.3h246.35" stroke="#3a414a" fill="none"/><use xlink:href="#a" transform="matrix(1,0,0,1,1186.6130100096163,337.5703794369645) translate(87.41944444444445 17.9)"/><use xlink:href="#b" transform="matrix(1,0,0,1,1190.6130100096163,379.97037943696455) translate(0 25.5)"/><use xlink:href="#c" transform="matrix(1,0,0,1,1190.6130100096163,379.97037943696455) translate(60.9 25.5)"/><use xlink:href="#d" transform="matrix(1,0,0,1,1190.6130100096163,379.97037943696455) translate(0 47.1)"/><use xlink:href="#e" transform="matrix(1,0,0,1,1190.6130100096163,379.97037943696455) translate(59.9 47.1)"/><use xlink:href="#f" transform="matrix(1,0,0,1,1190.6130100096163,379.97037943696455) translate(0 68.7)"/><use xlink:href="#g" transform="matrix(1,0,0,1,1190.6130100096163,379.97037943696455) translate(88.75000000000001 68.7)"/><use xlink:href="#h" transform="matrix(1,0,0,1,1190.6130100096163,482.27037943696456) translate(0 25.5)"/><use xlink:href="#i" transform="matrix(1,0,0,1,1190.6130100096163,482.27037943696456) translate(92.35000000000001 25.5)"/><use xlink:href="#j" transform="matrix(1,0,0,1,1190.6130100096163,482.27037943696456) translate(0 47.1)"/><use xlink:href="#i" transform="matrix(1,0,0,1,1190.6130100096163,482.27037943696456) translate(119.30000000000001 47.1)"/><use xlink:href="#k" transform="matrix(1,0,0,1,1190.6130100096163,482.27037943696456) translate(0 68.7)"/><use xlink:href="#l" transform="matrix(1,0,0,1,1190.6130100096163,482.27037943696456) translate(115.35000000000001 68.7)"/><path d="M1480 335.57a6 6 0 0 1 6-6h231.43a6 6 0 0 1 6 6v235a6 6 0 0 1-6 6H1486a6 6 0 0 1-6-6z" stroke="#3a414a" fill="#fff"/><path d="M1480 371.97h243.43M1480 474.27h243.43" stroke="#3a414a" fill="none"/><use xlink:href="#m" transform="matrix(1,0,0,1,1488,337.5703794369645) translate(80.48055555555555 17.9)"/><use xlink:href="#n" transform="matrix(1,0,0,1,1492,379.97037943696455) translate(0 25.5)"/><use xlink:href="#o" transform="matrix(1,0,0,1,1492,379.97037943696455) translate(77.9 25.5)"/><use xlink:href="#b" transform="matrix(1,0,0,1,1492,379.97037943696455) translate(0 47.1)"/><use xlink:href="#o" transform="matrix(1,0,0,1,1492,379.97037943696455) translate(60.9 47.1)"/><use xlink:href="#d" transform="matrix(1,0,0,1,1492,379.97037943696455) translate(0 68.7)"/><use xlink:href="#p" transform="matrix(1,0,0,1,1492,379.97037943696455) translate(59.9 68.7)"/><use xlink:href="#q" transform="matrix(1,0,0,1,1492,482.27037943696456) translate(0 25.5)"/><use xlink:href="#i" transform="matrix(1,0,0,1,1492,482.27037943696456) translate(113.15000000000002 25.5)"/><use xlink:href="#r" transform="matrix(1,0,0,1,1492,482.27037943696456) translate(0 47.1)"/><use xlink:href="#i" transform="matrix(1,0,0,1,1492,482.27037943696456) translate(83.20000000000002 47.1)"/><use xlink:href="#s" transform="matrix(1,0,0,1,1492,482.27037943696456) translate(0 68.7)"/><use xlink:href="#l" transform="matrix(1,0,0,1,1492,482.27037943696456) translate(91.30000000000001 68.7)"/><path d="M1800 326a6 6 0 0 1 6-6h226.87a6 6 0 0 1 6 6v235a6 6 0 0 1-6 6H1806a6 6 0 0 1-6-6z" stroke="#3a414a" fill="#fff"/><path d="M1800 362.4h238.87M1800 464.7h238.87" stroke="#3a414a" fill="none"/><use xlink:href="#t" transform="matrix(1,0,0,1,1808,328) translate(85.28333333333333 17.9)"/><use xlink:href="#b" transform="matrix(1,0,0,1,1812,370.4) translate(0 25.5)"/><use xlink:href="#o" transform="matrix(1,0,0,1,1812,370.4) translate(60.9 25.5)"/><use xlink:href="#u" transform="matrix(1,0,0,1,1812,370.4) translate(0 47.1)"/><use xlink:href="#e" transform="matrix(1,0,0,1,1812,370.4) translate(61.900000000000006 47.1)"/><use xlink:href="#v" transform="matrix(1,0,0,1,1812,370.4) translate(0 68.7)"/><use xlink:href="#p" transform="matrix(1,0,0,1,1812,370.4) translate(50.8 68.7)"/><use xlink:href="#w" transform="matrix(1,0,0,1,1812,472.7) translate(0 25.5)"/><use xlink:href="#i" transform="matrix(1,0,0,1,1812,472.7) translate(73.25 25.5)"/><use xlink:href="#x" transform="matrix(1,0,0,1,1812,472.7) translate(0 47.1)"/><use xlink:href="#i" transform="matrix(1,0,0,1,1812,472.7) translate(115.20000000000002 47.1)"/><use xlink:href="#y" transform="matrix(1,0,0,1,1812,472.7) translate(0 68.7)"/><use xlink:href="#l" transform="matrix(1,0,0,1,1812,472.7) translate(73.20000000000002 68.7)"/><path d="M2115.43 326a6 6 0 0 1 6-6h224a6 6 0 0 1 6 6v235a6 6 0 0 1-6 6h-224a6 6 0 0 1-6-6z" stroke="#3a414a" fill="#fff"/><path d="M2115.43 362.4h236m-236 102.3h236" stroke="#3a414a" fill="none"/><use xlink:href="#z" transform="matrix(1,0,0,1,2123.433349609375,328) translate(82.59166666666667 17.9)"/><use xlink:href="#A" transform="matrix(1,0,0,1,2127.433349609375,370.4) translate(0 25.5)"/><use xlink:href="#o" transform="matrix(1,0,0,1,2127.433349609375,370.4) translate(65.85 25.5)"/><use xlink:href="#B" transform="matrix(1,0,0,1,2127.433349609375,370.4) translate(0 47.1)"/><use xlink:href="#o" transform="matrix(1,0,0,1,2127.433349609375,370.4) translate(74.85000000000001 47.1)"/><use xlink:href="#C" transform="matrix(1,0,0,1,2127.433349609375,370.4) translate(0 68.7)"/><use xlink:href="#p" transform="matrix(1,0,0,1,2127.433349609375,370.4) translate(83.9 68.7)"/><g><use xlink:href="#D" transform="matrix(1,0,0,1,2127.433349609375,472.7) translate(0 25.5)"/><use xlink:href="#i" transform="matrix(1,0,0,1,2127.433349609375,472.7) translate(66.25 25.5)"/><use xlink:href="#E" transform="matrix(1,0,0,1,2127.433349609375,472.7) translate(0 47.1)"/><use xlink:href="#i" transform="matrix(1,0,0,1,2127.433349609375,472.7) translate(95.25000000000001 47.1)"/><use xlink:href="#F" transform="matrix(1,0,0,1,2127.433349609375,472.7) translate(0 68.7)"/><use xlink:href="#l" transform="matrix(1,0,0,1,2127.433349609375,472.7) translate(104.20000000000002 68.7)"/></g><path d="M2428 326a6 6 0 0 1 6-6h225.47a6 6 0 0 1 6 6v235a6 6 0 0 1-6 6H2434a6 6 0 0 1-6-6z" stroke="#3a414a" fill="#fff"/><path d="M2428 362.4h237.47M2428 464.7h237.47" stroke="#3a414a" fill="none"/><g><use xlink:href="#G" transform="matrix(1,0,0,1,2436.000030517578,328) translate(76.22777777777777 17.9)"/></g><g><use xlink:href="#b" transform="matrix(1,0,0,1,2440.000030517578,370.4) translate(0 25.5)"/><use xlink:href="#o" transform="matrix(1,0,0,1,2440.000030517578,370.4) translate(60.9 25.5)"/><use xlink:href="#H" transform="matrix(1,0,0,1,2440.000030517578,370.4) translate(0 47.1)"/><use xlink:href="#o" transform="matrix(1,0,0,1,2440.000030517578,370.4) translate(69.95 47.1)"/><use xlink:href="#I" transform="matrix(1,0,0,1,2440.000030517578,370.4) translate(0 68.7)"/><use xlink:href="#p" transform="matrix(1,0,0,1,2440.000030517578,370.4) translate(98.9 68.7)"/></g><g><use xlink:href="#D" transform="matrix(1,0,0,1,2440.000030517578,472.7) translate(0 25.5)"/><use xlink:href="#i" transform="matrix(1,0,0,1,2440.000030517578,472.7) translate(66.25 25.5)"/><use xlink:href="#E" transform="matrix(1,0,0,1,2440.000030517578,472.7) translate(0 47.1)"/><use xlink:href="#i" transform="matrix(1,0,0,1,2440.000030517578,472.7) translate(95.25000000000001 47.1)"/><use xlink:href="#J" transform="matrix(1,0,0,1,2440.000030517578,472.7) translate(0 68.7)"/><use xlink:href="#l" transform="matrix(1,0,0,1,2440.000030517578,472.7) translate(105.25000000000001 68.7)"/></g><path d="M1178.6 626a6 6 0 0 1 6-6h229.9a6 6 0 0 1 6 6v235a6 6 0 0 1-6 6h-229.9a6 6 0 0 1-6-6z" stroke="#3a414a" fill="#fff"/><path d="M1178.6 662.4h241.9m-241.9 102.3h241.9" stroke="#3a414a" fill="none"/><g><use xlink:href="#K" transform="matrix(1,0,0,1,1186.6130100096163,628) translate(86.23333333333333 17.9)"/></g><g><use xlink:href="#L" transform="matrix(1,0,0,1,1190.6130100096163,670.4) translate(0 25.5)"/><use xlink:href="#o" transform="matrix(1,0,0,1,1190.6130100096163,670.4) translate(47.9 25.5)"/><use xlink:href="#M" transform="matrix(1,0,0,1,1190.6130100096163,670.4) translate(0 47.1)"/><use xlink:href="#e" transform="matrix(1,0,0,1,1190.6130100096163,670.4) translate(40 47.1)"/><use xlink:href="#N" transform="matrix(1,0,0,1,1190.6130100096163,670.4) translate(0 68.7)"/><use xlink:href="#p" transform="matrix(1,0,0,1,1190.6130100096163,670.4) translate(92.95 68.7)"/></g><g><use xlink:href="#O" transform="matrix(1,0,0,1,1190.6130100096163,772.6999999999999) translate(0 25.5)"/><use xlink:href="#i" transform="matrix(1,0,0,1,1190.6130100096163,772.6999999999999) translate(113.20000000000002 25.5)"/><use xlink:href="#P" transform="matrix(1,0,0,1,1190.6130100096163,772.6999999999999) translate(0 47.1)"/><use xlink:href="#i" transform="matrix(1,0,0,1,1190.6130100096163,772.6999999999999) translate(87.35000000000001 47.1)"/><use xlink:href="#F" transform="matrix(1,0,0,1,1190.6130100096163,772.6999999999999) translate(0 68.7)"/><use xlink:href="#l" transform="matrix(1,0,0,1,1190.6130100096163,772.6999999999999) translate(104.20000000000002 68.7)"/></g><path d="M1474.83 626a6 6 0 0 1 6-6h241.77a6 6 0 0 1 6 6v235a6 6 0 0 1-6 6h-241.77a6 6 0 0 1-6-6z" stroke="#3a414a" fill="#fff"/><path d="M1474.83 662.4h253.77m-253.77 102.3h253.77" stroke="#3a414a" fill="none"/><g><use xlink:href="#Q" transform="matrix(1,0,0,1,1482.8333282470703,628) translate(93.39444444444445 17.9)"/></g><g><use xlink:href="#b" transform="matrix(1,0,0,1,1486.8333282470703,670.4) translate(0 25.5)"/><use xlink:href="#o" transform="matrix(1,0,0,1,1486.8333282470703,670.4) translate(60.9 25.5)"/><use xlink:href="#R" transform="matrix(1,0,0,1,1486.8333282470703,670.4) translate(0 47.1)"/><use xlink:href="#o" transform="matrix(1,0,0,1,1486.8333282470703,670.4) translate(60.900000000000006 47.1)"/><use xlink:href="#S" transform="matrix(1,0,0,1,1486.8333282470703,670.4) translate(0 68.7)"/><use xlink:href="#T" transform="matrix(1,0,0,1,1486.8333282470703,670.4) translate(87.9 68.7)"/></g><g><use xlink:href="#U" transform="matrix(1,0,0,1,1486.8333282470703,772.6999999999999) translate(0 25.5)"/><use xlink:href="#i" transform="matrix(1,0,0,1,1486.8333282470703,772.6999999999999) translate(124.20000000000002 25.5)"/><use xlink:href="#V" transform="matrix(1,0,0,1,1486.8333282470703,772.6999999999999) translate(0 47.1)"/><use xlink:href="#i" transform="matrix(1,0,0,1,1486.8333282470703,772.6999999999999) translate(119.25000000000001 47.1)"/><use xlink:href="#F" transform="matrix(1,0,0,1,1486.8333282470703,772.6999999999999) translate(0 68.7)"/><use xlink:href="#l" transform="matrix(1,0,0,1,1486.8333282470703,772.6999999999999) translate(104.20000000000002 68.7)"/></g><path d="M1800 626a6 6 0 0 1 6-6h228.97a6 6 0 0 1 6 6v235a6 6 0 0 1-6 6H1806a6 6 0 0 1-6-6z" stroke="#3a414a" fill="#fff"/><path d="M1800 662.4h240.97M1800 764.7h240.97" stroke="#3a414a" fill="none"/><g><use xlink:href="#W" transform="matrix(1,0,0,1,1808,628) translate(88.72777777777777 17.9)"/></g><g><use xlink:href="#X" transform="matrix(1,0,0,1,1812,670.4) translate(0 25.5)"/><use xlink:href="#o" transform="matrix(1,0,0,1,1812,670.4) translate(53.85 25.5)"/><use xlink:href="#Y" transform="matrix(1,0,0,1,1812,670.4) translate(0 47.1)"/><use xlink:href="#o" transform="matrix(1,0,0,1,1812,670.4) translate(56.900000000000006 47.1)"/><use xlink:href="#Z" transform="matrix(1,0,0,1,1812,670.4) translate(0 68.7)"/><use xlink:href="#T" transform="matrix(1,0,0,1,1812,670.4) translate(108.85 68.7)"/></g><g><use xlink:href="#aa" transform="matrix(1,0,0,1,1812,772.6999999999999) translate(0 25.5)"/><use xlink:href="#i" transform="matrix(1,0,0,1,1812,772.6999999999999) translate(68.25000000000001 25.5)"/><use xlink:href="#ab" transform="matrix(1,0,0,1,1812,772.6999999999999) translate(0 47.1)"/><use xlink:href="#i" transform="matrix(1,0,0,1,1812,772.6999999999999) translate(82.35000000000001 47.1)"/><use xlink:href="#F" transform="matrix(1,0,0,1,1812,772.6999999999999) translate(0 68.7)"/><use xlink:href="#l" transform="matrix(1,0,0,1,1812,772.6999999999999) translate(104.20000000000002 68.7)"/></g><path d="M2115.43 626a6 6 0 0 1 6-6h228.97a6 6 0 0 1 6 6v235a6 6 0 0 1-6 6h-228.97a6 6 0 0 1-6-6z" stroke="#3a414a" fill="#fff"/><path d="M2115.43 662.4h240.97m-240.97 102.3h240.97" stroke="#3a414a" fill="none"/><g><use xlink:href="#ac" transform="matrix(1,0,0,1,2123.433349609375,628) translate(75.83333333333334 17.9)"/></g><g><use xlink:href="#b" transform="matrix(1,0,0,1,2127.433349609375,670.4) translate(0 25.5)"/><use xlink:href="#o" transform="matrix(1,0,0,1,2127.433349609375,670.4) translate(60.9 25.5)"/><use xlink:href="#d" transform="matrix(1,0,0,1,2127.433349609375,670.4) translate(0 47.1)"/><use xlink:href="#ad" transform="matrix(1,0,0,1,2127.433349609375,670.4) translate(59.9 47.1)"/><use xlink:href="#ae" transform="matrix(1,0,0,1,2127.433349609375,670.4) translate(0 68.7)"/><use xlink:href="#T" transform="matrix(1,0,0,1,2127.433349609375,670.4) translate(153.8 68.7)"/></g><g><use xlink:href="#af" transform="matrix(1,0,0,1,2127.433349609375,772.6999999999999) translate(0 25.5)"/><use xlink:href="#i" transform="matrix(1,0,0,1,2127.433349609375,772.6999999999999) translate(142.15 25.5)"/><use xlink:href="#ag" transform="matrix(1,0,0,1,2127.433349609375,772.6999999999999) translate(0 47.1)"/><use xlink:href="#i" transform="matrix(1,0,0,1,2127.433349609375,772.6999999999999) translate(101.30000000000001 47.1)"/><use xlink:href="#F" transform="matrix(1,0,0,1,2127.433349609375,772.6999999999999) translate(0 68.7)"/><use xlink:href="#l" transform="matrix(1,0,0,1,2127.433349609375,772.6999999999999) translate(104.20000000000002 68.7)"/></g><path d="M2428 626a6 6 0 0 1 6-6h225.47a6 6 0 0 1 6 6v235a6 6 0 0 1-6 6H2434a6 6 0 0 1-6-6z" stroke="#3a414a" fill="#fff"/><path d="M2428 662.4h237.47M2428 764.7h237.47" stroke="#3a414a" fill="none"/><g><use xlink:href="#ah" transform="matrix(1,0,0,1,2436.000030517578,628) translate(72.53055555555555 17.9)"/></g><g><use xlink:href="#b" transform="matrix(1,0,0,1,2440.000030517578,670.4) translate(0 25.5)"/><use xlink:href="#o" transform="matrix(1,0,0,1,2440.000030517578,670.4) translate(60.9 25.5)"/><use xlink:href="#ai" transform="matrix(1,0,0,1,2440.000030517578,670.4) translate(0 47.1)"/><use xlink:href="#aj" transform="matrix(1,0,0,1,2440.000030517578,670.4) translate(60.9 47.1)"/><use xlink:href="#ak" transform="matrix(1,0,0,1,2440.000030517578,670.4) translate(0 68.7)"/><use xlink:href="#al" transform="matrix(1,0,0,1,2440.000030517578,670.4) translate(82.85 68.7)"/></g><g><use xlink:href="#am" transform="matrix(1,0,0,1,2440.000030517578,772.6999999999999) translate(0 25.5)"/><use xlink:href="#i" transform="matrix(1,0,0,1,2440.000030517578,772.6999999999999) translate(146.15 25.5)"/><use xlink:href="#an" transform="matrix(1,0,0,1,2440.000030517578,772.6999999999999) translate(0 47.1)"/><use xlink:href="#i" transform="matrix(1,0,0,1,2440.000030517578,772.6999999999999) translate(161.2 47.1)"/><use xlink:href="#ao" transform="matrix(1,0,0,1,2440.000030517578,772.6999999999999) translate(0 68.7)"/><use xlink:href="#l" transform="matrix(1,0,0,1,2440.000030517578,772.6999999999999) translate(163.75 68.7)"/></g><defs><path d="M205 0l-28-72H64L36 0H1l101-248h38L239 0h-34zm-38-99l-47-123c-12 45-31 82-46 123h93" id="ap"/><path d="M24 0v-261h32V0H24" id="aq"/><path d="M84 4C-5 8 30-112 23-190h32v120c0 31 7 50 39 49 72-2 45-101 50-169h31l1 190h-30c-1-10 1-25-2-33-11 22-28 36-60 37" id="ar"/><path d="M117-194c89-4 53 116 60 194h-32v-121c0-31-8-49-39-48C34-167 62-67 57 0H25l-1-190h30c1 10-1 24 2 32 11-22 29-35 61-36" id="as"/><path d="M100-194c62-1 85 37 85 99 1 63-27 99-86 99S16-35 15-95c0-66 28-99 85-99zM99-20c44 1 53-31 53-75 0-43-8-75-51-75s-53 32-53 75 10 74 51 75" id="at"/><g id="a"><use transform="matrix(0.06111111111111111,0,0,0.06111111111111111,0,0)" xlink:href="#ap"/><use transform="matrix(0.06111111111111111,0,0,0.06111111111111111,14.666666666666666,0)" xlink:href="#aq"/><use transform="matrix(0.06111111111111111,0,0,0.06111111111111111,19.494444444444444,0)" xlink:href="#ar"/><use transform="matrix(0.06111111111111111,0,0,0.06111111111111111,31.716666666666665,0)" xlink:href="#as"/><use transform="matrix(0.06111111111111111,0,0,0.06111111111111111,43.93888888888888,0)" xlink:href="#at"/></g><path d="M16-82v-28h88v28H16" id="au"/><path d="M210-169c-67 3-38 105-44 169h-31v-121c0-29-5-50-35-48C34-165 62-65 56 0H25l-1-190h30c1 10-1 24 2 32 10-44 99-50 107 0 11-21 27-35 58-36 85-2 47 119 55 194h-31v-121c0-29-5-49-35-48" id="av"/><path d="M100-194c63 0 86 42 84 106H49c0 40 14 67 53 68 26 1 43-12 49-29l28 8c-11 28-37 45-77 45C44 4 14-33 15-96c1-61 26-98 85-98zm52 81c6-60-76-77-97-28-3 7-6 17-6 28h103" id="aw"/><path d="M33-154v-36h34v36H33zM33 0v-36h34V0H33" id="ax"/><g id="b"><use transform="matrix(0.05,0,0,0.05,0,0)" xlink:href="#au"/><use transform="matrix(0.05,0,0,0.05,5.95,0)" xlink:href="#as"/><use transform="matrix(0.05,0,0,0.05,15.949999999999998,0)" xlink:href="#at"/><use transform="matrix(0.05,0,0,0.05,25.950000000000003,0)" xlink:href="#av"/><use transform="matrix(0.05,0,0,0.05,40.9,0)" xlink:href="#aw"/><use transform="matrix(0.05,0,0,0.05,50.9,0)" xlink:href="#ax"/></g><path d="M135-143c-3-34-86-38-87 0 15 53 115 12 119 90S17 21 10-45l28-5c4 36 97 45 98 0-10-56-113-15-118-90-4-57 82-63 122-42 12 7 21 19 24 35" id="ay"/><path d="M59-47c-2 24 18 29 38 22v24C64 9 27 4 27-40v-127H5v-23h24l9-43h21v43h35v23H59v120" id="az"/><path d="M114-163C36-179 61-72 57 0H25l-1-190h30c1 12-1 29 2 39 6-27 23-49 58-41v29" id="aA"/><path d="M24-231v-30h32v30H24zM24 0v-190h32V0H24" id="aB"/><path d="M177-190C167-65 218 103 67 71c-23-6-38-20-44-43l32-5c15 47 100 32 89-28v-30C133-14 115 1 83 1 29 1 15-40 15-95c0-56 16-97 71-98 29-1 48 16 59 35 1-10 0-23 2-32h30zM94-22c36 0 50-32 50-73 0-42-14-75-50-75-39 0-46 34-46 75s6 73 46 73" id="aC"/><g id="c"><use transform="matrix(0.05,0,0,0.05,0,0)" xlink:href="#ay"/><use transform="matrix(0.05,0,0,0.05,9,0)" xlink:href="#az"/><use transform="matrix(0.05,0,0,0.05,14,0)" xlink:href="#aA"/><use transform="matrix(0.05,0,0,0.05,19.95,0)" xlink:href="#aB"/><use transform="matrix(0.05,0,0,0.05,23.9,0)" xlink:href="#as"/><use transform="matrix(0.05,0,0,0.05,33.9,0)" xlink:href="#aC"/></g><path d="M85-194c31 0 48 13 60 33l-1-100h32l1 261h-30c-2-10 0-23-3-31C134-8 116 4 85 4 32 4 16-35 15-94c0-66 23-100 70-100zm9 24c-40 0-46 34-46 75 0 40 6 74 45 74 42 0 51-32 51-76 0-42-9-74-50-73" id="aD"/><path d="M141-36C126-15 110 5 73 4 37 3 15-17 15-53c-1-64 63-63 125-63 3-35-9-54-41-54-24 1-41 7-42 31l-33-3c5-37 33-52 76-52 45 0 72 20 72 64v82c-1 20 7 32 28 27v20c-31 9-61-2-59-35zM48-53c0 20 12 33 32 33 41-3 63-29 60-74-43 2-92-5-92 41" id="aE"/><g id="d"><use transform="matrix(0.05,0,0,0.05,0,0)" xlink:href="#au"/><use transform="matrix(0.05,0,0,0.05,5.95,0)" xlink:href="#aB"/><use transform="matrix(0.05,0,0,0.05,9.9,0)" xlink:href="#aD"/><use transform="matrix(0.05,0,0,0.05,19.9,0)" xlink:href="#aE"/><use transform="matrix(0.05,0,0,0.05,29.899999999999995,0)" xlink:href="#aD"/><use transform="matrix(0.05,0,0,0.05,39.9,0)" xlink:href="#aw"/><use transform="matrix(0.05,0,0,0.05,49.9,0)" xlink:href="#ax"/></g><g id="e"><use transform="matrix(0.05,0,0,0.05,0,0)" xlink:href="#aB"/><use transform="matrix(0.05,0,0,0.05,3.95,0)" xlink:href="#as"/><use transform="matrix(0.05,0,0,0.05,13.949999999999998,0)" xlink:href="#az"/></g><path d="M96-169c-40 0-48 33-48 73s9 75 48 75c24 0 41-14 43-38l32 2c-6 37-31 61-74 61-59 0-76-41-82-99-10-93 101-131 147-64 4 7 5 14 7 22l-32 3c-4-21-16-35-41-35" id="aF"/><g id="f"><use transform="matrix(0.05,0,0,0.05,0,0)" xlink:href="#au"/><use transform="matrix(0.05,0,0,0.05,5.95,0)" xlink:href="#av"/><use transform="matrix(0.05,0,0,0.05,20.900000000000002,0)" xlink:href="#aE"/><use transform="matrix(0.05,0,0,0.05,30.900000000000002,0)" xlink:href="#az"/><use transform="matrix(0.05,0,0,0.05,35.900000000000006,0)" xlink:href="#aA"/><use transform="matrix(0.05,0,0,0.05,41.85000000000001,0)" xlink:href="#aB"/><use transform="matrix(0.05,0,0,0.05,45.80000000000001,0)" xlink:href="#aF"/><use transform="matrix(0.05,0,0,0.05,54.80000000000001,0)" xlink:href="#ar"/><use transform="matrix(0.05,0,0,0.05,64.80000000000001,0)" xlink:href="#aq"/><use transform="matrix(0.05,0,0,0.05,68.75000000000001,0)" xlink:href="#aE"/><use transform="matrix(0.05,0,0,0.05,78.75000000000001,0)" xlink:href="#ax"/></g><g id="g"><use transform="matrix(0.05,0,0,0.05,0,0)" xlink:href="#ay"/><use transform="matrix(0.05,0,0,0.05,9,0)" xlink:href="#az"/><use transform="matrix(0.05,0,0,0.05,14,0)" xlink:href="#aA"/><use transform="matrix(0.05,0,0,0.05,19.95,0)" xlink:href="#aB"/><use transform="matrix(0.05,0,0,0.05,23.9,0)" xlink:href="#as"/><use transform="matrix(0.05,0,0,0.05,33.9,0)" xlink:href="#aC"/></g><path d="M118-107v75H92v-75H18v-26h74v-75h26v75h74v26h-74" id="aG"/><path d="M87 75C49 33 22-17 22-94c0-76 28-126 65-167h31c-38 41-64 92-64 168S80 34 118 75H87" id="aH"/><path d="M33-261c38 41 65 92 65 168S71 34 33 75H2C39 34 66-17 66-93S39-220 2-261h31" id="aI"/><g id="h"><use transform="matrix(0.05,0,0,0.05,0,0)" xlink:href="#aG"/><use transform="matrix(0.05,0,0,0.05,10.5,0)" xlink:href="#aw"/><use transform="matrix(0.05,0,0,0.05,20.5,0)" xlink:href="#ay"/><use transform="matrix(0.05,0,0,0.05,29.5,0)" xlink:href="#az"/><use transform="matrix(0.05,0,0,0.05,34.5,0)" xlink:href="#ar"/><use transform="matrix(0.05,0,0,0.05,44.5,0)" xlink:href="#aD"/><use transform="matrix(0.05,0,0,0.05,54.5,0)" xlink:href="#aE"/><use transform="matrix(0.05,0,0,0.05,64.5,0)" xlink:href="#aA"/><use transform="matrix(0.05,0,0,0.05,70.45,0)" xlink:href="#aH"/><use transform="matrix(0.05,0,0,0.05,76.4,0)" xlink:href="#aI"/><use transform="matrix(0.05,0,0,0.05,82.35000000000001,0)" xlink:href="#ax"/></g><path d="M108 0H70L1-190h34L89-25l56-165h34" id="aJ"/><g id="i"><use transform="matrix(0.05,0,0,0.05,0,0)" xlink:href="#aJ"/><use transform="matrix(0.05,0,0,0.05,9,0)" xlink:href="#at"/><use transform="matrix(0.05,0,0,0.05,19,0)" xlink:href="#aB"/><use transform="matrix(0.05,0,0,0.05,22.95,0)" xlink:href="#aD"/></g><path d="M101-234c-31-9-42 10-38 44h38v23H63V0H32v-167H5v-23h27c-7-52 17-82 69-68v24" id="aK"/><path d="M9 0v-24l116-142H16v-24h144v24L44-24h123V0H9" id="aL"/><path d="M30-248c87 1 191-15 191 75 0 78-77 80-158 76V0H30v-248zm33 125c57 0 124 11 124-50 0-59-68-47-124-48v98" id="aM"/><g id="j"><use transform="matrix(0.05,0,0,0.05,0,0)" xlink:href="#aG"/><use transform="matrix(0.05,0,0,0.05,10.5,0)" xlink:href="#aK"/><use transform="matrix(0.05,0,0,0.05,15.5,0)" xlink:href="#aE"/><use transform="matrix(0.05,0,0,0.05,25.5,0)" xlink:href="#aL"/><use transform="matrix(0.05,0,0,0.05,34.5,0)" xlink:href="#aw"/><use transform="matrix(0.05,0,0,0.05,44.5,0)" xlink:href="#aA"/><use transform="matrix(0.05,0,0,0.05,50.45,0)" xlink:href="#aM"/><use transform="matrix(0.05,0,0,0.05,62.45,0)" xlink:href="#aA"/><use transform="matrix(0.05,0,0,0.05,68.4,0)" xlink:href="#at"/><use transform="matrix(0.05,0,0,0.05,78.4,0)" xlink:href="#aJ"/><use transform="matrix(0.05,0,0,0.05,87.4,0)" xlink:href="#aE"/><use transform="matrix(0.05,0,0,0.05,97.4,0)" xlink:href="#aH"/><use transform="matrix(0.05,0,0,0.05,103.35000000000001,0)" xlink:href="#aI"/><use transform="matrix(0.05,0,0,0.05,109.30000000000001,0)" xlink:href="#ax"/></g><g id="k"><use transform="matrix(0.05,0,0,0.05,0,0)" xlink:href="#aG"/><use transform="matrix(0.05,0,0,0.05,10.5,0)" xlink:href="#aD"/><use transform="matrix(0.05,0,0,0.05,20.5,0)" xlink:href="#aw"/><use transform="matrix(0.05,0,0,0.05,30.5,0)" xlink:href="#ay"/><use transform="matrix(0.05,0,0,0.05,39.5,0)" xlink:href="#aF"/><use transform="matrix(0.05,0,0,0.05,48.5,0)" xlink:href="#aE"/><use transform="matrix(0.05,0,0,0.05,58.5,0)" xlink:href="#as"/><use transform="matrix(0.05,0,0,0.05,68.5,0)" xlink:href="#ay"/><use transform="matrix(0.05,0,0,0.05,77.5,0)" xlink:href="#aE"/><use transform="matrix(0.05,0,0,0.05,87.5,0)" xlink:href="#aA"/><use transform="matrix(0.05,0,0,0.05,93.45,0)" xlink:href="#aH"/><use transform="matrix(0.05,0,0,0.05,99.4,0)" xlink:href="#aI"/><use transform="matrix(0.05,0,0,0.05,105.35000000000001,0)" xlink:href="#ax"/></g><g id="l"><use transform="matrix(0.05,0,0,0.05,0,0)" xlink:href="#aJ"/><use transform="matrix(0.05,0,0,0.05,9,0)" xlink:href="#at"/><use transform="matrix(0.05,0,0,0.05,19,0)" xlink:href="#aB"/><use transform="matrix(0.05,0,0,0.05,22.95,0)" xlink:href="#aD"/></g><g id="m"><use transform="matrix(0.06111111111111111,0,0,0.06111111111111111,0,0)" xlink:href="#ap"/><use transform="matrix(0.06111111111111111,0,0,0.06111111111111111,14.666666666666666,0)" xlink:href="#as"/><use transform="matrix(0.06111111111111111,0,0,0.06111111111111111,26.888888888888886,0)" xlink:href="#aB"/><use transform="matrix(0.06111111111111111,0,0,0.06111111111111111,31.716666666666658,0)" xlink:href="#av"/><use transform="matrix(0.06111111111111111,0,0,0.06111111111111111,49.98888888888888,0)" xlink:href="#aE"/><use transform="matrix(0.06111111111111111,0,0,0.06111111111111111,62.2111111111111,0)" xlink:href="#aq"/></g><path d="M115-194c55 1 70 41 70 98S169 2 115 4C84 4 66-9 55-30l1 105H24l-1-265h31l2 30c10-21 28-34 59-34zm-8 174c40 0 45-34 45-75s-6-73-45-74c-42 0-51 32-51 76 0 43 10 73 51 73" id="aN"/><g id="n"><use transform="matrix(0.05,0,0,0.05,0,0)" xlink:href="#au"/><use transform="matrix(0.05,0,0,0.05,5.95,0)" xlink:href="#aw"/><use transform="matrix(0.05,0,0,0.05,15.949999999999998,0)" xlink:href="#ay"/><use transform="matrix(0.05,0,0,0.05,24.95,0)" xlink:href="#aN"/><use transform="matrix(0.05,0,0,0.05,34.95,0)" xlink:href="#aw"/><use transform="matrix(0.05,0,0,0.05,44.95,0)" xlink:href="#aF"/><use transform="matrix(0.05,0,0,0.05,53.95,0)" xlink:href="#aB"/><use transform="matrix(0.05,0,0,0.05,57.900000000000006,0)" xlink:href="#aw"/><use transform="matrix(0.05,0,0,0.05,67.9,0)" xlink:href="#ax"/></g><path d="M185-189c-5-48-123-54-124 2 14 75 158 14 163 119 3 78-121 87-175 55-17-10-28-26-33-46l33-7c5 56 141 63 141-1 0-78-155-14-162-118-5-82 145-84 179-34 5 7 8 16 11 25" id="aO"/><g id="o"><use transform="matrix(0.05,0,0,0.05,0,0)" xlink:href="#aO"/><use transform="matrix(0.05,0,0,0.05,12,0)" xlink:href="#az"/><use transform="matrix(0.05,0,0,0.05,17,0)" xlink:href="#aA"/><use transform="matrix(0.05,0,0,0.05,22.95,0)" xlink:href="#aB"/><use transform="matrix(0.05,0,0,0.05,26.899999999999995,0)" xlink:href="#as"/><use transform="matrix(0.05,0,0,0.05,36.9,0)" xlink:href="#aC"/></g><g id="p"><use transform="matrix(0.05,0,0,0.05,0,0)" xlink:href="#aB"/><use transform="matrix(0.05,0,0,0.05,3.95,0)" xlink:href="#as"/><use transform="matrix(0.05,0,0,0.05,13.949999999999998,0)" xlink:href="#az"/></g><g id="q"><use transform="matrix(0.05,0,0,0.05,0,0)" xlink:href="#aG"/><use transform="matrix(0.05,0,0,0.05,10.5,0)" xlink:href="#aw"/><use transform="matrix(0.05,0,0,0.05,20.5,0)" xlink:href="#av"/><use transform="matrix(0.05,0,0,0.05,35.45,0)" xlink:href="#aB"/><use transform="matrix(0.05,0,0,0.05,39.400000000000006,0)" xlink:href="#az"/><use transform="matrix(0.05,0,0,0.05,44.400000000000006,0)" xlink:href="#aB"/><use transform="matrix(0.05,0,0,0.05,48.35000000000001,0)" xlink:href="#aA"/><use transform="matrix(0.05,0,0,0.05,54.30000000000001,0)" xlink:href="#aO"/><use transform="matrix(0.05,0,0,0.05,66.30000000000001,0)" xlink:href="#at"/><use transform="matrix(0.05,0,0,0.05,76.30000000000001,0)" xlink:href="#av"/><use transform="matrix(0.05,0,0,0.05,91.25000000000001,0)" xlink:href="#aH"/><use transform="matrix(0.05,0,0,0.05,97.20000000000002,0)" xlink:href="#aI"/><use transform="matrix(0.05,0,0,0.05,103.15000000000003,0)" xlink:href="#ax"/></g><g id="r"><use transform="matrix(0.05,0,0,0.05,0,0)" xlink:href="#aG"/><use transform="matrix(0.05,0,0,0.05,10.5,0)" xlink:href="#aD"/><use transform="matrix(0.05,0,0,0.05,20.5,0)" xlink:href="#at"/><use transform="matrix(0.05,0,0,0.05,30.5,0)" xlink:href="#aA"/><use transform="matrix(0.05,0,0,0.05,36.45,0)" xlink:href="#av"/><use transform="matrix(0.05,0,0,0.05,51.400000000000006,0)" xlink:href="#aB"/><use transform="matrix(0.05,0,0,0.05,55.35,0)" xlink:href="#aA"/><use transform="matrix(0.05,0,0,0.05,61.30000000000001,0)" xlink:href="#aH"/><use transform="matrix(0.05,0,0,0.05,67.25000000000001,0)" xlink:href="#aI"/><use transform="matrix(0.05,0,0,0.05,73.20000000000002,0)" xlink:href="#ax"/></g><g id="s"><use transform="matrix(0.05,0,0,0.05,0,0)" xlink:href="#aG"/><use transform="matrix(0.05,0,0,0.05,10.5,0)" xlink:href="#aF"/><use transform="matrix(0.05,0,0,0.05,19.5,0)" xlink:href="#aA"/><use transform="matrix(0.05,0,0,0.05,25.45,0)" xlink:href="#aw"/><use transform="matrix(0.05,0,0,0.05,35.45,0)" xlink:href="#ay"/><use transform="matrix(0.05,0,0,0.05,44.45,0)" xlink:href="#aF"/><use transform="matrix(0.05,0,0,0.05,53.45,0)" xlink:href="#aw"/><use transform="matrix(0.05,0,0,0.05,63.45,0)" xlink:href="#aA"/><use transform="matrix(0.05,0,0,0.05,69.4,0)" xlink:href="#aH"/><use transform="matrix(0.05,0,0,0.05,75.35000000000001,0)" xlink:href="#aI"/><use transform="matrix(0.05,0,0,0.05,81.30000000000001,0)" xlink:href="#ax"/></g><g id="t"><use transform="matrix(0.06111111111111111,0,0,0.06111111111111111,0,0)" xlink:href="#ap"/><use transform="matrix(0.06111111111111111,0,0,0.06111111111111111,14.666666666666666,0)" xlink:href="#aA"/><use transform="matrix(0.06111111111111111,0,0,0.06111111111111111,21.93888888888889,0)" xlink:href="#av"/><use transform="matrix(0.06111111111111111,0,0,0.06111111111111111,40.21111111111111,0)" xlink:href="#aE"/></g><g id="u"><use transform="matrix(0.05,0,0,0.05,0,0)" xlink:href="#au"/><use transform="matrix(0.05,0,0,0.05,5.95,0)" xlink:href="#aN"/><use transform="matrix(0.05,0,0,0.05,15.949999999999998,0)" xlink:href="#at"/><use transform="matrix(0.05,0,0,0.05,25.950000000000003,0)" xlink:href="#aD"/><use transform="matrix(0.05,0,0,0.05,35.95,0)" xlink:href="#aw"/><use transform="matrix(0.05,0,0,0.05,45.95,0)" xlink:href="#aA"/><use transform="matrix(0.05,0,0,0.05,51.900000000000006,0)" xlink:href="#ax"/></g><g id="v"><use transform="matrix(0.05,0,0,0.05,0,0)" xlink:href="#au"/><use transform="matrix(0.05,0,0,0.05,5.95,0)" xlink:href="#av"/><use transform="matrix(0.05,0,0,0.05,20.900000000000002,0)" xlink:href="#aB"/><use transform="matrix(0.05,0,0,0.05,24.85,0)" xlink:href="#aA"/><use transform="matrix(0.05,0,0,0.05,30.8,0)" xlink:href="#aE"/><use transform="matrix(0.05,0,0,0.05,40.8,0)" xlink:href="#ax"/></g><g id="w"><use transform="matrix(0.05,0,0,0.05,0,0)" xlink:href="#aG"/><use transform="matrix(0.05,0,0,0.05,10.5,0)" xlink:href="#aE"/><use transform="matrix(0.05,0,0,0.05,20.5,0)" xlink:href="#az"/><use transform="matrix(0.05,0,0,0.05,25.5,0)" xlink:href="#aB"/><use transform="matrix(0.05,0,0,0.05,29.450000000000003,0)" xlink:href="#aA"/><use transform="matrix(0.05,0,0,0.05,35.4,0)" xlink:href="#aE"/><use transform="matrix(0.05,0,0,0.05,45.4,0)" xlink:href="#aA"/><use transform="matrix(0.05,0,0,0.05,51.35,0)" xlink:href="#aH"/><use transform="matrix(0.05,0,0,0.05,57.300000000000004,0)" xlink:href="#aI"/><use transform="matrix(0.05,0,0,0.05,63.25,0)" xlink:href="#ax"/></g><g id="x"><use transform="matrix(0.05,0,0,0.05,0,0)" xlink:href="#aG"/><use transform="matrix(0.05,0,0,0.05,10.5,0)" xlink:href="#aA"/><use transform="matrix(0.05,0,0,0.05,16.45,0)" xlink:href="#aw"/><use transform="matrix(0.05,0,0,0.05,26.450000000000003,0)" xlink:href="#aF"/><use transform="matrix(0.05,0,0,0.05,35.45,0)" xlink:href="#aE"/><use transform="matrix(0.05,0,0,0.05,45.45,0)" xlink:href="#aA"/><use transform="matrix(0.05,0,0,0.05,51.400000000000006,0)" xlink:href="#aA"/><use transform="matrix(0.05,0,0,0.05,57.35,0)" xlink:href="#aw"/><use transform="matrix(0.05,0,0,0.05,67.35000000000001,0)" xlink:href="#aC"/><use transform="matrix(0.05,0,0,0.05,77.35000000000001,0)" xlink:href="#aE"/><use transform="matrix(0.05,0,0,0.05,87.35000000000001,0)" xlink:href="#aA"/><use transform="matrix(0.05,0,0,0.05,93.30000000000001,0)" xlink:href="#aH"/><use transform="matrix(0.05,0,0,0.05,99.25000000000001,0)" xlink:href="#aI"/><use transform="matrix(0.05,0,0,0.05,105.2,0)" xlink:href="#ax"/></g><g id="y"><use transform="matrix(0.05,0,0,0.05,0,0)" xlink:href="#aG"/><use transform="matrix(0.05,0,0,0.05,10.5,0)" xlink:href="#av"/><use transform="matrix(0.05,0,0,0.05,25.450000000000003,0)" xlink:href="#aB"/><use transform="matrix(0.05,0,0,0.05,29.400000000000002,0)" xlink:href="#aA"/><use transform="matrix(0.05,0,0,0.05,35.35,0)" xlink:href="#aE"/><use transform="matrix(0.05,0,0,0.05,45.35,0)" xlink:href="#aA"/><use transform="matrix(0.05,0,0,0.05,51.300000000000004,0)" xlink:href="#aH"/><use transform="matrix(0.05,0,0,0.05,57.25,0)" xlink:href="#aI"/><use transform="matrix(0.05,0,0,0.05,63.20000000000002,0)" xlink:href="#ax"/></g><path d="M212-179c-10-28-35-45-73-45-59 0-87 40-87 99 0 60 29 101 89 101 43 0 62-24 78-52l27 14C228-24 195 4 139 4 59 4 22-46 18-125c-6-104 99-153 187-111 19 9 31 26 39 46" id="aP"/><g id="z"><use transform="matrix(0.06111111111111111,0,0,0.06111111111111111,0,0)" xlink:href="#aP"/><use transform="matrix(0.06111111111111111,0,0,0.06111111111111111,15.827777777777778,0)" xlink:href="#aE"/><use transform="matrix(0.06111111111111111,0,0,0.06111111111111111,28.049999999999997,0)" xlink:href="#aA"/><use transform="matrix(0.06111111111111111,0,0,0.06111111111111111,35.32222222222222,0)" xlink:href="#aA"/><use transform="matrix(0.06111111111111111,0,0,0.06111111111111111,42.59444444444445,0)" xlink:href="#at"/></g><g id="A"><use transform="matrix(0.05,0,0,0.05,0,0)" xlink:href="#au"/><use transform="matrix(0.05,0,0,0.05,5.95,0)" xlink:href="#av"/><use transform="matrix(0.05,0,0,0.05,20.900000000000002,0)" xlink:href="#aE"/><use transform="matrix(0.05,0,0,0.05,30.900000000000002,0)" xlink:href="#aA"/><use transform="matrix(0.05,0,0,0.05,36.85,0)" xlink:href="#aF"/><use transform="matrix(0.05,0,0,0.05,45.85,0)" xlink:href="#aE"/><use transform="matrix(0.05,0,0,0.05,55.85,0)" xlink:href="#ax"/></g><g id="B"><use transform="matrix(0.05,0,0,0.05,0,0)" xlink:href="#au"/><use transform="matrix(0.05,0,0,0.05,5.95,0)" xlink:href="#av"/><use transform="matrix(0.05,0,0,0.05,20.900000000000002,0)" xlink:href="#at"/><use transform="matrix(0.05,0,0,0.05,30.900000000000002,0)" xlink:href="#aD"/><use transform="matrix(0.05,0,0,0.05,40.900000000000006,0)" xlink:href="#aw"/><use transform="matrix(0.05,0,0,0.05,50.900000000000006,0)" xlink:href="#aq"/><use transform="matrix(0.05,0,0,0.05,54.85,0)" xlink:href="#at"/><use transform="matrix(0.05,0,0,0.05,64.85000000000001,0)" xlink:href="#ax"/></g><g id="C"><use transform="matrix(0.05,0,0,0.05,0,0)" xlink:href="#au"/><use transform="matrix(0.05,0,0,0.05,5.95,0)" xlink:href="#aN"/><use transform="matrix(0.05,0,0,0.05,15.949999999999998,0)" xlink:href="#at"/><use transform="matrix(0.05,0,0,0.05,25.950000000000003,0)" xlink:href="#az"/><use transform="matrix(0.05,0,0,0.05,30.950000000000003,0)" xlink:href="#aw"/><use transform="matrix(0.05,0,0,0.05,40.95,0)" xlink:href="#as"/><use transform="matrix(0.05,0,0,0.05,50.95,0)" xlink:href="#aF"/><use transform="matrix(0.05,0,0,0.05,59.95,0)" xlink:href="#aB"/><use transform="matrix(0.05,0,0,0.05,63.900000000000006,0)" xlink:href="#aE"/><use transform="matrix(0.05,0,0,0.05,73.9,0)" xlink:href="#ax"/></g><g id="D"><use transform="matrix(0.05,0,0,0.05,0,0)" xlink:href="#aG"/><use transform="matrix(0.05,0,0,0.05,10.5,0)" xlink:href="#aq"/><use transform="matrix(0.05,0,0,0.05,14.449999999999998,0)" xlink:href="#aB"/><use transform="matrix(0.05,0,0,0.05,18.4,0)" xlink:href="#aC"/><use transform="matrix(0.05,0,0,0.05,28.399999999999995,0)" xlink:href="#aE"/><use transform="matrix(0.05,0,0,0.05,38.4,0)" xlink:href="#aA"/><use transform="matrix(0.05,0,0,0.05,44.35,0)" xlink:href="#aH"/><use transform="matrix(0.05,0,0,0.05,50.300000000000004,0)" xlink:href="#aI"/><use transform="matrix(0.05,0,0,0.05,56.25,0)" xlink:href="#ax"/></g><g id="E"><use transform="matrix(0.05,0,0,0.05,0,0)" xlink:href="#aG"/><use transform="matrix(0.05,0,0,0.05,10.5,0)" xlink:href="#aD"/><use transform="matrix(0.05,0,0,0.05,20.5,0)" xlink:href="#aw"/><use transform="matrix(0.05,0,0,0.05,30.5,0)" xlink:href="#ay"/><use transform="matrix(0.05,0,0,0.05,39.5,0)" xlink:href="#aq"/><use transform="matrix(0.05,0,0,0.05,43.45,0)" xlink:href="#aB"/><use transform="matrix(0.05,0,0,0.05,47.400000000000006,0)" xlink:href="#aC"/><use transform="matrix(0.05,0,0,0.05,57.400000000000006,0)" xlink:href="#aE"/><use transform="matrix(0.05,0,0,0.05,67.4,0)" xlink:href="#aA"/><use transform="matrix(0.05,0,0,0.05,73.35000000000001,0)" xlink:href="#aH"/><use transform="matrix(0.05,0,0,0.05,79.30000000000001,0)" xlink:href="#aI"/><use transform="matrix(0.05,0,0,0.05,85.25000000000001,0)" xlink:href="#ax"/></g><path d="M141 0L90-78 38 0H4l68-98-65-92h35l48 74 47-74h35l-64 92 68 98h-35" id="aQ"/><path d="M115-194c53 0 69 39 70 98 0 66-23 100-70 100C84 3 66-7 56-30L54 0H23l1-261h32v101c10-23 28-34 59-34zm-8 174c40 0 45-34 45-75 0-40-5-75-45-74-42 0-51 32-51 76 0 43 10 73 51 73" id="aR"/><g id="F"><use transform="matrix(0.05,0,0,0.05,0,0)" xlink:href="#aG"/><use transform="matrix(0.05,0,0,0.05,10.5,0)" xlink:href="#aw"/><use transform="matrix(0.05,0,0,0.05,20.5,0)" xlink:href="#aQ"/><use transform="matrix(0.05,0,0,0.05,29.5,0)" xlink:href="#aB"/><use transform="matrix(0.05,0,0,0.05,33.45,0)" xlink:href="#aR"/><use transform="matrix(0.05,0,0,0.05,43.45,0)" xlink:href="#aB"/><use transform="matrix(0.05,0,0,0.05,47.400000000000006,0)" xlink:href="#aA"/><use transform="matrix(0.05,0,0,0.05,53.35,0)" xlink:href="#aB"/><use transform="matrix(0.05,0,0,0.05,57.30000000000001,0)" xlink:href="#as"/><use transform="matrix(0.05,0,0,0.05,67.30000000000001,0)" xlink:href="#aK"/><use transform="matrix(0.05,0,0,0.05,72.30000000000001,0)" xlink:href="#at"/><use transform="matrix(0.05,0,0,0.05,82.30000000000001,0)" xlink:href="#aH"/><use transform="matrix(0.05,0,0,0.05,88.25000000000001,0)" xlink:href="#aI"/><use transform="matrix(0.05,0,0,0.05,94.20000000000002,0)" xlink:href="#ax"/></g><g id="G"><use transform="matrix(0.06111111111111111,0,0,0.06111111111111111,0,0)" xlink:href="#aP"/><use transform="matrix(0.06111111111111111,0,0,0.06111111111111111,15.827777777777778,0)" xlink:href="#aB"/><use transform="matrix(0.06111111111111111,0,0,0.06111111111111111,20.655555555555555,0)" xlink:href="#aD"/><use transform="matrix(0.06111111111111111,0,0,0.06111111111111111,32.87777777777778,0)" xlink:href="#aE"/><use transform="matrix(0.06111111111111111,0,0,0.06111111111111111,45.1,0)" xlink:href="#aD"/><use transform="matrix(0.06111111111111111,0,0,0.06111111111111111,57.32222222222222,0)" xlink:href="#aw"/></g><g id="H"><use transform="matrix(0.05,0,0,0.05,0,0)" xlink:href="#au"/><use transform="matrix(0.05,0,0,0.05,5.95,0)" xlink:href="#aw"/><use transform="matrix(0.05,0,0,0.05,15.949999999999998,0)" xlink:href="#ay"/><use transform="matrix(0.05,0,0,0.05,24.95,0)" xlink:href="#az"/><use transform="matrix(0.05,0,0,0.05,29.950000000000003,0)" xlink:href="#aE"/><use transform="matrix(0.05,0,0,0.05,39.95,0)" xlink:href="#aD"/><use transform="matrix(0.05,0,0,0.05,49.95,0)" xlink:href="#at"/><use transform="matrix(0.05,0,0,0.05,59.95,0)" xlink:href="#ax"/></g><g id="I"><use transform="matrix(0.05,0,0,0.05,0,0)" xlink:href="#au"/><use transform="matrix(0.05,0,0,0.05,5.95,0)" xlink:href="#aN"/><use transform="matrix(0.05,0,0,0.05,15.949999999999998,0)" xlink:href="#at"/><use transform="matrix(0.05,0,0,0.05,25.950000000000003,0)" xlink:href="#aN"/><use transform="matrix(0.05,0,0,0.05,35.95,0)" xlink:href="#ar"/><use transform="matrix(0.05,0,0,0.05,45.95,0)" xlink:href="#aq"/><use transform="matrix(0.05,0,0,0.05,49.900000000000006,0)" xlink:href="#aE"/><use transform="matrix(0.05,0,0,0.05,59.900000000000006,0)" xlink:href="#aF"/><use transform="matrix(0.05,0,0,0.05,68.9,0)" xlink:href="#aE"/><use transform="matrix(0.05,0,0,0.05,78.9,0)" xlink:href="#at"/><use transform="matrix(0.05,0,0,0.05,88.9,0)" xlink:href="#ax"/></g><path d="M33 0v-248h34V0H33" id="aS"/><g id="J"><use transform="matrix(0.05,0,0,0.05,0,0)" xlink:href="#aG"/><use transform="matrix(0.05,0,0,0.05,10.5,0)" xlink:href="#aw"/><use transform="matrix(0.05,0,0,0.05,20.5,0)" xlink:href="#aQ"/><use transform="matrix(0.05,0,0,0.05,29.5,0)" xlink:href="#aB"/><use transform="matrix(0.05,0,0,0.05,33.45,0)" xlink:href="#aR"/><use transform="matrix(0.05,0,0,0.05,43.45,0)" xlink:href="#aB"/><use transform="matrix(0.05,0,0,0.05,47.400000000000006,0)" xlink:href="#aA"/><use transform="matrix(0.05,0,0,0.05,53.35,0)" xlink:href="#aS"/><use transform="matrix(0.05,0,0,0.05,58.35,0)" xlink:href="#as"/><use transform="matrix(0.05,0,0,0.05,68.35000000000001,0)" xlink:href="#aK"/><use transform="matrix(0.05,0,0,0.05,73.35000000000001,0)" xlink:href="#at"/><use transform="matrix(0.05,0,0,0.05,83.35000000000001,0)" xlink:href="#aH"/><use transform="matrix(0.05,0,0,0.05,89.30000000000001,0)" xlink:href="#aI"/><use transform="matrix(0.05,0,0,0.05,95.25000000000001,0)" xlink:href="#ax"/></g><path d="M63-220v92h138v28H63V0H30v-248h175v28H63" id="aT"/><g id="K"><use transform="matrix(0.06111111111111111,0,0,0.06111111111111111,0,0)" xlink:href="#aT"/><use transform="matrix(0.06111111111111111,0,0,0.06111111111111111,13.383333333333333,0)" xlink:href="#aB"/><use transform="matrix(0.06111111111111111,0,0,0.06111111111111111,18.21111111111111,0)" xlink:href="#aq"/><use transform="matrix(0.06111111111111111,0,0,0.06111111111111111,23.038888888888884,0)" xlink:href="#av"/><use transform="matrix(0.06111111111111111,0,0,0.06111111111111111,41.3111111111111,0)" xlink:href="#aw"/></g><g id="L"><use transform="matrix(0.05,0,0,0.05,0,0)" xlink:href="#az"/><use transform="matrix(0.05,0,0,0.05,5,0)" xlink:href="#aB"/><use transform="matrix(0.05,0,0,0.05,8.95,0)" xlink:href="#az"/><use transform="matrix(0.05,0,0,0.05,13.949999999999998,0)" xlink:href="#ar"/><use transform="matrix(0.05,0,0,0.05,23.95,0)" xlink:href="#aq"/><use transform="matrix(0.05,0,0,0.05,27.899999999999995,0)" xlink:href="#at"/><use transform="matrix(0.05,0,0,0.05,37.9,0)" xlink:href="#ax"/></g><g id="M"><use transform="matrix(0.05,0,0,0.05,0,0)" xlink:href="#aE"/><use transform="matrix(0.05,0,0,0.05,10,0)" xlink:href="#as"/><use transform="matrix(0.05,0,0,0.05,20,0)" xlink:href="#at"/><use transform="matrix(0.05,0,0,0.05,30,0)" xlink:href="#ax"/></g><g id="N"><use transform="matrix(0.05,0,0,0.05,0,0)" xlink:href="#aN"/><use transform="matrix(0.05,0,0,0.05,10,0)" xlink:href="#at"/><use transform="matrix(0.05,0,0,0.05,20,0)" xlink:href="#aN"/><use transform="matrix(0.05,0,0,0.05,30,0)" xlink:href="#ar"/><use transform="matrix(0.05,0,0,0.05,40,0)" xlink:href="#aq"/><use transform="matrix(0.05,0,0,0.05,43.95,0)" xlink:href="#aE"/><use transform="matrix(0.05,0,0,0.05,53.95,0)" xlink:href="#aF"/><use transform="matrix(0.05,0,0,0.05,62.95,0)" xlink:href="#aE"/><use transform="matrix(0.05,0,0,0.05,72.95,0)" xlink:href="#at"/><use transform="matrix(0.05,0,0,0.05,82.95,0)" xlink:href="#ax"/></g><g id="O"><use transform="matrix(0.05,0,0,0.05,0,0)" xlink:href="#aG"/><use transform="matrix(0.05,0,0,0.05,10.5,0)" xlink:href="#aA"/><use transform="matrix(0.05,0,0,0.05,16.45,0)" xlink:href="#aw"/><use transform="matrix(0.05,0,0,0.05,26.450000000000003,0)" xlink:href="#aN"/><use transform="matrix(0.05,0,0,0.05,36.45,0)" xlink:href="#aA"/><use transform="matrix(0.05,0,0,0.05,42.400000000000006,0)" xlink:href="#at"/><use transform="matrix(0.05,0,0,0.05,52.400000000000006,0)" xlink:href="#aD"/><use transform="matrix(0.05,0,0,0.05,62.400000000000006,0)" xlink:href="#ar"/><use transform="matrix(0.05,0,0,0.05,72.4,0)" xlink:href="#aL"/><use transform="matrix(0.05,0,0,0.05,81.4,0)" xlink:href="#aB"/><use transform="matrix(0.05,0,0,0.05,85.35000000000001,0)" xlink:href="#aA"/><use transform="matrix(0.05,0,0,0.05,91.30000000000001,0)" xlink:href="#aH"/><use transform="matrix(0.05,0,0,0.05,97.25000000000001,0)" xlink:href="#aI"/><use transform="matrix(0.05,0,0,0.05,103.2,0)" xlink:href="#ax"/></g><g id="P"><use transform="matrix(0.05,0,0,0.05,0,0)" xlink:href="#aG"/><use transform="matrix(0.05,0,0,0.05,10.5,0)" xlink:href="#aN"/><use transform="matrix(0.05,0,0,0.05,20.5,0)" xlink:href="#aE"/><use transform="matrix(0.05,0,0,0.05,30.5,0)" xlink:href="#ar"/><use transform="matrix(0.05,0,0,0.05,40.5,0)" xlink:href="#ay"/><use transform="matrix(0.05,0,0,0.05,49.5,0)" xlink:href="#aE"/><use transform="matrix(0.05,0,0,0.05,59.5,0)" xlink:href="#aA"/><use transform="matrix(0.05,0,0,0.05,65.45,0)" xlink:href="#aH"/><use transform="matrix(0.05,0,0,0.05,71.4,0)" xlink:href="#aI"/><use transform="matrix(0.05,0,0,0.05,77.35000000000001,0)" xlink:href="#ax"/></g><g id="Q"><use transform="matrix(0.06111111111111111,0,0,0.06111111111111111,0,0)" xlink:href="#aT"/><use transform="matrix(0.06111111111111111,0,0,0.06111111111111111,13.383333333333333,0)" xlink:href="#aA"/><use transform="matrix(0.06111111111111111,0,0,0.06111111111111111,20.655555555555555,0)" xlink:href="#ar"/><use transform="matrix(0.06111111111111111,0,0,0.06111111111111111,32.87777777777778,0)" xlink:href="#az"/><use transform="matrix(0.06111111111111111,0,0,0.06111111111111111,38.988888888888894,0)" xlink:href="#aE"/></g><g id="R"><use transform="matrix(0.05,0,0,0.05,0,0)" xlink:href="#au"/><use transform="matrix(0.05,0,0,0.05,5.95,0)" xlink:href="#ay"/><use transform="matrix(0.05,0,0,0.05,14.949999999999998,0)" xlink:href="#aE"/><use transform="matrix(0.05,0,0,0.05,24.95,0)" xlink:href="#aR"/><use transform="matrix(0.05,0,0,0.05,34.95,0)" xlink:href="#at"/><use transform="matrix(0.05,0,0,0.05,44.95,0)" xlink:href="#aA"/><use transform="matrix(0.05,0,0,0.05,50.900000000000006,0)" xlink:href="#ax"/></g><g id="S"><use transform="matrix(0.05,0,0,0.05,0,0)" xlink:href="#au"/><use transform="matrix(0.05,0,0,0.05,5.95,0)" xlink:href="#aF"/><use transform="matrix(0.05,0,0,0.05,14.949999999999998,0)" xlink:href="#at"/><use transform="matrix(0.05,0,0,0.05,24.95,0)" xlink:href="#as"/><use transform="matrix(0.05,0,0,0.05,34.95,0)" xlink:href="#aD"/><use transform="matrix(0.05,0,0,0.05,44.95,0)" xlink:href="#aB"/><use transform="matrix(0.05,0,0,0.05,48.900000000000006,0)" xlink:href="#aF"/><use transform="matrix(0.05,0,0,0.05,57.900000000000006,0)" xlink:href="#aE"/><use transform="matrix(0.05,0,0,0.05,67.9,0)" xlink:href="#at"/><use transform="matrix(0.05,0,0,0.05,77.9,0)" xlink:href="#ax"/></g><g id="T"><use transform="matrix(0.05,0,0,0.05,0,0)" xlink:href="#aO"/><use transform="matrix(0.05,0,0,0.05,12,0)" xlink:href="#az"/><use transform="matrix(0.05,0,0,0.05,17,0)" xlink:href="#aA"/><use transform="matrix(0.05,0,0,0.05,22.95,0)" xlink:href="#aB"/><use transform="matrix(0.05,0,0,0.05,26.899999999999995,0)" xlink:href="#as"/><use transform="matrix(0.05,0,0,0.05,36.9,0)" xlink:href="#aC"/></g><g id="U"><use transform="matrix(0.05,0,0,0.05,0,0)" xlink:href="#aG"/><use transform="matrix(0.05,0,0,0.05,10.5,0)" xlink:href="#aF"/><use transform="matrix(0.05,0,0,0.05,19.5,0)" xlink:href="#at"/><use transform="matrix(0.05,0,0,0.05,29.5,0)" xlink:href="#av"/><use transform="matrix(0.05,0,0,0.05,44.45,0)" xlink:href="#aw"/><use transform="matrix(0.05,0,0,0.05,54.45,0)" xlink:href="#aA"/><use transform="matrix(0.05,0,0,0.05,60.400000000000006,0)" xlink:href="#aT"/><use transform="matrix(0.05,0,0,0.05,71.35000000000001,0)" xlink:href="#aA"/><use transform="matrix(0.05,0,0,0.05,77.30000000000001,0)" xlink:href="#ar"/><use transform="matrix(0.05,0,0,0.05,87.30000000000001,0)" xlink:href="#az"/><use transform="matrix(0.05,0,0,0.05,92.30000000000001,0)" xlink:href="#aE"/><use transform="matrix(0.05,0,0,0.05,102.30000000000001,0)" xlink:href="#aH"/><use transform="matrix(0.05,0,0,0.05,108.25,0)" xlink:href="#aI"/><use transform="matrix(0.05,0,0,0.05,114.2,0)" xlink:href="#ax"/></g><g id="V"><use transform="matrix(0.05,0,0,0.05,0,0)" xlink:href="#aG"/><use transform="matrix(0.05,0,0,0.05,10.5,0)" xlink:href="#ay"/><use transform="matrix(0.05,0,0,0.05,19.5,0)" xlink:href="#aE"/><use transform="matrix(0.05,0,0,0.05,29.5,0)" xlink:href="#aR"/><use transform="matrix(0.05,0,0,0.05,39.5,0)" xlink:href="#at"/><use transform="matrix(0.05,0,0,0.05,49.5,0)" xlink:href="#aA"/><use transform="matrix(0.05,0,0,0.05,55.45,0)" xlink:href="#aT"/><use transform="matrix(0.05,0,0,0.05,66.4,0)" xlink:href="#aA"/><use transform="matrix(0.05,0,0,0.05,72.35000000000001,0)" xlink:href="#ar"/><use transform="matrix(0.05,0,0,0.05,82.35000000000001,0)" xlink:href="#az"/><use transform="matrix(0.05,0,0,0.05,87.35000000000001,0)" xlink:href="#aE"/><use transform="matrix(0.05,0,0,0.05,97.35000000000001,0)" xlink:href="#aH"/><use transform="matrix(0.05,0,0,0.05,103.30000000000001,0)" xlink:href="#aI"/><use transform="matrix(0.05,0,0,0.05,109.25,0)" xlink:href="#ax"/></g><path d="M30 0v-248h33v221h125V0H30" id="aU"/><g id="W"><use transform="matrix(0.06111111111111111,0,0,0.06111111111111111,0,0)" xlink:href="#aU"/><use transform="matrix(0.06111111111111111,0,0,0.06111111111111111,12.222222222222221,0)" xlink:href="#aB"/><use transform="matrix(0.06111111111111111,0,0,0.06111111111111111,17.049999999999997,0)" xlink:href="#aJ"/><use transform="matrix(0.06111111111111111,0,0,0.06111111111111111,28.049999999999997,0)" xlink:href="#aA"/><use transform="matrix(0.06111111111111111,0,0,0.06111111111111111,35.32222222222222,0)" xlink:href="#at"/></g><g id="X"><use transform="matrix(0.05,0,0,0.05,0,0)" xlink:href="#au"/><use transform="matrix(0.05,0,0,0.05,5.95,0)" xlink:href="#az"/><use transform="matrix(0.05,0,0,0.05,10.95,0)" xlink:href="#aB"/><use transform="matrix(0.05,0,0,0.05,14.899999999999999,0)" xlink:href="#az"/><use transform="matrix(0.05,0,0,0.05,19.9,0)" xlink:href="#ar"/><use transform="matrix(0.05,0,0,0.05,29.899999999999995,0)" xlink:href="#aq"/><use transform="matrix(0.05,0,0,0.05,33.85,0)" xlink:href="#at"/><use transform="matrix(0.05,0,0,0.05,43.85,0)" xlink:href="#ax"/></g><g id="Y"><use transform="matrix(0.05,0,0,0.05,0,0)" xlink:href="#au"/><use transform="matrix(0.05,0,0,0.05,5.95,0)" xlink:href="#aE"/><use transform="matrix(0.05,0,0,0.05,15.949999999999998,0)" xlink:href="#ar"/><use transform="matrix(0.05,0,0,0.05,25.950000000000003,0)" xlink:href="#az"/><use transform="matrix(0.05,0,0,0.05,30.950000000000003,0)" xlink:href="#at"/><use transform="matrix(0.05,0,0,0.05,40.95,0)" xlink:href="#aA"/><use transform="matrix(0.05,0,0,0.05,46.900000000000006,0)" xlink:href="#ax"/></g><g id="Z"><use transform="matrix(0.05,0,0,0.05,0,0)" xlink:href="#au"/><use transform="matrix(0.05,0,0,0.05,5.95,0)" xlink:href="#aq"/><use transform="matrix(0.05,0,0,0.05,9.9,0)" xlink:href="#aE"/><use transform="matrix(0.05,0,0,0.05,19.9,0)" xlink:href="#as"/><use transform="matrix(0.05,0,0,0.05,29.899999999999995,0)" xlink:href="#aF"/><use transform="matrix(0.05,0,0,0.05,38.9,0)" xlink:href="#aE"/><use transform="matrix(0.05,0,0,0.05,48.9,0)" xlink:href="#av"/><use transform="matrix(0.05,0,0,0.05,63.85,0)" xlink:href="#aw"/><use transform="matrix(0.05,0,0,0.05,73.85,0)" xlink:href="#as"/><use transform="matrix(0.05,0,0,0.05,83.85,0)" xlink:href="#az"/><use transform="matrix(0.05,0,0,0.05,88.85,0)" xlink:href="#at"/><use transform="matrix(0.05,0,0,0.05,98.85,0)" xlink:href="#ax"/></g><g id="aa"><use transform="matrix(0.05,0,0,0.05,0,0)" xlink:href="#aG"/><use transform="matrix(0.05,0,0,0.05,10.5,0)" xlink:href="#aE"/><use transform="matrix(0.05,0,0,0.05,20.5,0)" xlink:href="#aR"/><use transform="matrix(0.05,0,0,0.05,30.5,0)" xlink:href="#aA"/><use transform="matrix(0.05,0,0,0.05,36.45,0)" xlink:href="#aB"/><use transform="matrix(0.05,0,0,0.05,40.400000000000006,0)" xlink:href="#aA"/><use transform="matrix(0.05,0,0,0.05,46.35000000000001,0)" xlink:href="#aH"/><use transform="matrix(0.05,0,0,0.05,52.30000000000001,0)" xlink:href="#aI"/><use transform="matrix(0.05,0,0,0.05,58.250000000000014,0)" xlink:href="#ax"/></g><path d="M106-169C34-169 62-67 57 0H25v-261h32l-1 103c12-21 28-36 61-36 89 0 53 116 60 194h-32v-121c2-32-8-49-39-48" id="aV"/><g id="ab"><use transform="matrix(0.05,0,0,0.05,0,0)" xlink:href="#aG"/><use transform="matrix(0.05,0,0,0.05,10.5,0)" xlink:href="#aK"/><use transform="matrix(0.05,0,0,0.05,15.5,0)" xlink:href="#aw"/><use transform="matrix(0.05,0,0,0.05,25.5,0)" xlink:href="#aF"/><use transform="matrix(0.05,0,0,0.05,34.5,0)" xlink:href="#aV"/><use transform="matrix(0.05,0,0,0.05,44.5,0)" xlink:href="#aE"/><use transform="matrix(0.05,0,0,0.05,54.5,0)" xlink:href="#aA"/><use transform="matrix(0.05,0,0,0.05,60.45,0)" xlink:href="#aH"/><use transform="matrix(0.05,0,0,0.05,66.4,0)" xlink:href="#aI"/><use transform="matrix(0.05,0,0,0.05,72.35000000000001,0)" xlink:href="#ax"/></g><g id="ac"><use transform="matrix(0.06111111111111111,0,0,0.06111111111111111,0,0)" xlink:href="#aM"/><use transform="matrix(0.06111111111111111,0,0,0.06111111111111111,14.666666666666666,0)" xlink:href="#aw"/><use transform="matrix(0.06111111111111111,0,0,0.06111111111111111,26.888888888888886,0)" xlink:href="#ay"/><use transform="matrix(0.06111111111111111,0,0,0.06111111111111111,37.888888888888886,0)" xlink:href="#ay"/><use transform="matrix(0.06111111111111111,0,0,0.06111111111111111,48.888888888888886,0)" xlink:href="#at"/><use transform="matrix(0.06111111111111111,0,0,0.06111111111111111,61.11111111111111,0)" xlink:href="#aE"/></g><g id="ad"><use transform="matrix(0.05,0,0,0.05,0,0)" xlink:href="#aS"/><use transform="matrix(0.05,0,0,0.05,5,0)" xlink:href="#as"/><use transform="matrix(0.05,0,0,0.05,15,0)" xlink:href="#az"/></g><path d="M30 0v-248h187v28H63v79h144v27H63v87h162V0H30" id="aW"/><g id="ae"><use transform="matrix(0.05,0,0,0.05,0,0)" xlink:href="#au"/><use transform="matrix(0.05,0,0,0.05,5.95,0)" xlink:href="#aw"/><use transform="matrix(0.05,0,0,0.05,15.949999999999998,0)" xlink:href="#ay"/><use transform="matrix(0.05,0,0,0.05,24.95,0)" xlink:href="#az"/><use transform="matrix(0.05,0,0,0.05,29.950000000000003,0)" xlink:href="#aE"/><use transform="matrix(0.05,0,0,0.05,39.95,0)" xlink:href="#aD"/><use transform="matrix(0.05,0,0,0.05,49.95,0)" xlink:href="#at"/><use transform="matrix(0.05,0,0,0.05,59.95,0)" xlink:href="#aW"/><use transform="matrix(0.05,0,0,0.05,71.95,0)" xlink:href="#av"/><use transform="matrix(0.05,0,0,0.05,86.9,0)" xlink:href="#at"/><use transform="matrix(0.05,0,0,0.05,96.9,0)" xlink:href="#aF"/><use transform="matrix(0.05,0,0,0.05,105.9,0)" xlink:href="#aB"/><use transform="matrix(0.05,0,0,0.05,109.85000000000001,0)" xlink:href="#at"/><use transform="matrix(0.05,0,0,0.05,119.85000000000001,0)" xlink:href="#as"/><use transform="matrix(0.05,0,0,0.05,129.85000000000002,0)" xlink:href="#aE"/><use transform="matrix(0.05,0,0,0.05,139.85000000000002,0)" xlink:href="#aq"/><use transform="matrix(0.05,0,0,0.05,143.8,0)" xlink:href="#ax"/></g><g id="af"><use transform="matrix(0.05,0,0,0.05,0,0)" xlink:href="#aG"/><use transform="matrix(0.05,0,0,0.05,10.5,0)" xlink:href="#aF"/><use transform="matrix(0.05,0,0,0.05,19.5,0)" xlink:href="#ar"/><use transform="matrix(0.05,0,0,0.05,29.5,0)" xlink:href="#av"/><use transform="matrix(0.05,0,0,0.05,44.45,0)" xlink:href="#aN"/><use transform="matrix(0.05,0,0,0.05,54.45,0)" xlink:href="#aA"/><use transform="matrix(0.05,0,0,0.05,60.400000000000006,0)" xlink:href="#aB"/><use transform="matrix(0.05,0,0,0.05,64.35000000000001,0)" xlink:href="#av"/><use transform="matrix(0.05,0,0,0.05,79.30000000000001,0)" xlink:href="#aw"/><use transform="matrix(0.05,0,0,0.05,89.30000000000001,0)" xlink:href="#as"/><use transform="matrix(0.05,0,0,0.05,99.30000000000001,0)" xlink:href="#az"/><use transform="matrix(0.05,0,0,0.05,104.30000000000001,0)" xlink:href="#aE"/><use transform="matrix(0.05,0,0,0.05,114.30000000000001,0)" xlink:href="#aA"/><use transform="matrix(0.05,0,0,0.05,120.25,0)" xlink:href="#aH"/><use transform="matrix(0.05,0,0,0.05,126.2,0)" xlink:href="#aI"/><use transform="matrix(0.05,0,0,0.05,132.15,0)" xlink:href="#ax"/></g><g id="ag"><use transform="matrix(0.05,0,0,0.05,0,0)" xlink:href="#aG"/><use transform="matrix(0.05,0,0,0.05,10.5,0)" xlink:href="#aD"/><use transform="matrix(0.05,0,0,0.05,20.5,0)" xlink:href="#aw"/><use transform="matrix(0.05,0,0,0.05,30.5,0)" xlink:href="#ay"/><use transform="matrix(0.05,0,0,0.05,39.5,0)" xlink:href="#aN"/><use transform="matrix(0.05,0,0,0.05,49.5,0)" xlink:href="#aw"/><use transform="matrix(0.05,0,0,0.05,59.5,0)" xlink:href="#aD"/><use transform="matrix(0.05,0,0,0.05,69.5,0)" xlink:href="#aB"/><use transform="matrix(0.05,0,0,0.05,73.45,0)" xlink:href="#aA"/><use transform="matrix(0.05,0,0,0.05,79.4,0)" xlink:href="#aH"/><use transform="matrix(0.05,0,0,0.05,85.35000000000001,0)" xlink:href="#aI"/><use transform="matrix(0.05,0,0,0.05,91.30000000000001,0)" xlink:href="#ax"/></g><g id="ah"><use transform="matrix(0.06111111111111111,0,0,0.06111111111111111,0,0)" xlink:href="#aM"/><use transform="matrix(0.06111111111111111,0,0,0.06111111111111111,14.666666666666666,0)" xlink:href="#aA"/><use transform="matrix(0.06111111111111111,0,0,0.06111111111111111,21.93888888888889,0)" xlink:href="#at"/><use transform="matrix(0.06111111111111111,0,0,0.06111111111111111,34.16111111111111,0)" xlink:href="#aD"/><use transform="matrix(0.06111111111111111,0,0,0.06111111111111111,46.38333333333333,0)" xlink:href="#ar"/><use transform="matrix(0.06111111111111111,0,0,0.06111111111111111,58.605555555555554,0)" xlink:href="#az"/><use transform="matrix(0.06111111111111111,0,0,0.06111111111111111,64.71666666666667,0)" xlink:href="#at"/></g><g id="ai"><use transform="matrix(0.05,0,0,0.05,0,0)" xlink:href="#au"/><use transform="matrix(0.05,0,0,0.05,5.95,0)" xlink:href="#aN"/><use transform="matrix(0.05,0,0,0.05,15.949999999999998,0)" xlink:href="#aA"/><use transform="matrix(0.05,0,0,0.05,21.9,0)" xlink:href="#aw"/><use transform="matrix(0.05,0,0,0.05,31.899999999999995,0)" xlink:href="#aF"/><use transform="matrix(0.05,0,0,0.05,40.9,0)" xlink:href="#at"/><use transform="matrix(0.05,0,0,0.05,50.9,0)" xlink:href="#ax"/></g><path d="M30-248c118-7 216 8 213 122C240-48 200 0 122 0H30v-248zM63-27c89 8 146-16 146-99s-60-101-146-95v194" id="aX"/><g id="aj"><use transform="matrix(0.05,0,0,0.05,0,0)" xlink:href="#aX"/><use transform="matrix(0.05,0,0,0.05,12.950000000000001,0)" xlink:href="#at"/><use transform="matrix(0.05,0,0,0.05,22.950000000000003,0)" xlink:href="#ar"/><use transform="matrix(0.05,0,0,0.05,32.95,0)" xlink:href="#aR"/><use transform="matrix(0.05,0,0,0.05,42.95,0)" xlink:href="#aq"/><use transform="matrix(0.05,0,0,0.05,46.900000000000006,0)" xlink:href="#aw"/></g><g id="ak"><use transform="matrix(0.05,0,0,0.05,0,0)" xlink:href="#au"/><use transform="matrix(0.05,0,0,0.05,5.95,0)" xlink:href="#aJ"/><use transform="matrix(0.05,0,0,0.05,14.949999999999998,0)" xlink:href="#aE"/><use transform="matrix(0.05,0,0,0.05,24.95,0)" xlink:href="#aq"/><use transform="matrix(0.05,0,0,0.05,28.899999999999995,0)" xlink:href="#aB"/><use transform="matrix(0.05,0,0,0.05,32.85,0)" xlink:href="#aD"/><use transform="matrix(0.05,0,0,0.05,42.85,0)" xlink:href="#aE"/><use transform="matrix(0.05,0,0,0.05,52.85,0)" xlink:href="#aD"/><use transform="matrix(0.05,0,0,0.05,62.85,0)" xlink:href="#aw"/><use transform="matrix(0.05,0,0,0.05,72.85,0)" xlink:href="#ax"/></g><path d="M160-131c35 5 61 23 61 61C221 17 115-2 30 0v-248c76 3 177-17 177 60 0 33-19 50-47 57zm-97-11c50-1 110 9 110-42 0-47-63-36-110-37v79zm0 115c55-2 124 14 124-45 0-56-70-42-124-44v89" id="aY"/><g id="al"><use transform="matrix(0.05,0,0,0.05,0,0)" xlink:href="#aY"/><use transform="matrix(0.05,0,0,0.05,12,0)" xlink:href="#at"/><use transform="matrix(0.05,0,0,0.05,22,0)" xlink:href="#at"/><use transform="matrix(0.05,0,0,0.05,32,0)" xlink:href="#aq"/><use transform="matrix(0.05,0,0,0.05,35.95,0)" xlink:href="#aw"/><use transform="matrix(0.05,0,0,0.05,45.95,0)" xlink:href="#aE"/><use transform="matrix(0.05,0,0,0.05,55.95,0)" xlink:href="#as"/></g><g id="am"><use transform="matrix(0.05,0,0,0.05,0,0)" xlink:href="#aG"/><use transform="matrix(0.05,0,0,0.05,10.5,0)" xlink:href="#aw"/><use transform="matrix(0.05,0,0,0.05,20.5,0)" xlink:href="#aQ"/><use transform="matrix(0.05,0,0,0.05,29.5,0)" xlink:href="#aB"/><use transform="matrix(0.05,0,0,0.05,33.45,0)" xlink:href="#aR"/><use transform="matrix(0.05,0,0,0.05,43.45,0)" xlink:href="#aB"/><use transform="matrix(0.05,0,0,0.05,47.400000000000006,0)" xlink:href="#aA"/><use transform="matrix(0.05,0,0,0.05,53.35,0)" xlink:href="#aX"/><use transform="matrix(0.05,0,0,0.05,66.30000000000001,0)" xlink:href="#aw"/><use transform="matrix(0.05,0,0,0.05,76.30000000000001,0)" xlink:href="#az"/><use transform="matrix(0.05,0,0,0.05,81.30000000000001,0)" xlink:href="#aE"/><use transform="matrix(0.05,0,0,0.05,91.30000000000001,0)" xlink:href="#aq"/><use transform="matrix(0.05,0,0,0.05,95.25000000000001,0)" xlink:href="#aV"/><use transform="matrix(0.05,0,0,0.05,105.25,0)" xlink:href="#aw"/><use transform="matrix(0.05,0,0,0.05,115.25,0)" xlink:href="#ay"/><use transform="matrix(0.05,0,0,0.05,124.25,0)" xlink:href="#aH"/><use transform="matrix(0.05,0,0,0.05,130.20000000000002,0)" xlink:href="#aI"/><use transform="matrix(0.05,0,0,0.05,136.15,0)" xlink:href="#ax"/></g><g id="an"><use transform="matrix(0.05,0,0,0.05,0,0)" xlink:href="#aG"/><use transform="matrix(0.05,0,0,0.05,10.5,0)" xlink:href="#aE"/><use transform="matrix(0.05,0,0,0.05,20.5,0)" xlink:href="#aN"/><use transform="matrix(0.05,0,0,0.05,30.5,0)" xlink:href="#aq"/><use transform="matrix(0.05,0,0,0.05,34.45,0)" xlink:href="#aB"/><use transform="matrix(0.05,0,0,0.05,38.400000000000006,0)" xlink:href="#aF"/><use transform="matrix(0.05,0,0,0.05,47.400000000000006,0)" xlink:href="#aE"/><use transform="matrix(0.05,0,0,0.05,57.400000000000006,0)" xlink:href="#aA"/><use transform="matrix(0.05,0,0,0.05,63.35,0)" xlink:href="#aX"/><use transform="matrix(0.05,0,0,0.05,76.30000000000001,0)" xlink:href="#aw"/><use transform="matrix(0.05,0,0,0.05,86.30000000000001,0)" xlink:href="#ay"/><use transform="matrix(0.05,0,0,0.05,95.30000000000001,0)" xlink:href="#aF"/><use transform="matrix(0.05,0,0,0.05,104.30000000000001,0)" xlink:href="#at"/><use transform="matrix(0.05,0,0,0.05,114.30000000000001,0)" xlink:href="#as"/><use transform="matrix(0.05,0,0,0.05,124.30000000000001,0)" xlink:href="#az"/><use transform="matrix(0.05,0,0,0.05,129.3,0)" xlink:href="#at"/><use transform="matrix(0.05,0,0,0.05,139.3,0)" xlink:href="#aH"/><use transform="matrix(0.05,0,0,0.05,145.25,0)" xlink:href="#aI"/><use transform="matrix(0.05,0,0,0.05,151.2,0)" xlink:href="#ax"/></g><path d="M137 0h-34L2-248h35l83 218 83-218h36" id="aZ"/><g id="ao"><use transform="matrix(0.05,0,0,0.05,0,0)" xlink:href="#aG"/><use transform="matrix(0.05,0,0,0.05,10.5,0)" xlink:href="#aJ"/><use transform="matrix(0.05,0,0,0.05,19.5,0)" xlink:href="#aw"/><use transform="matrix(0.05,0,0,0.05,29.5,0)" xlink:href="#aA"/><use transform="matrix(0.05,0,0,0.05,35.45,0)" xlink:href="#aB"/><use transform="matrix(0.05,0,0,0.05,39.400000000000006,0)" xlink:href="#aK"/><use transform="matrix(0.05,0,0,0.05,44.400000000000006,0)" xlink:href="#aB"/><use transform="matrix(0.05,0,0,0.05,48.35000000000001,0)" xlink:href="#aF"/><use transform="matrix(0.05,0,0,0.05,57.35,0)" xlink:href="#aE"/><use transform="matrix(0.05,0,0,0.05,67.35000000000001,0)" xlink:href="#aA"/><use transform="matrix(0.05,0,0,0.05,73.30000000000001,0)" xlink:href="#aZ"/><use transform="matrix(0.05,0,0,0.05,83.95000000000002,0)" xlink:href="#aE"/><use transform="matrix(0.05,0,0,0.05,93.95000000000002,0)" xlink:href="#aq"/><use transform="matrix(0.05,0,0,0.05,97.90000000000002,0)" xlink:href="#aB"/><use transform="matrix(0.05,0,0,0.05,101.85000000000002,0)" xlink:href="#aD"/><use transform="matrix(0.05,0,0,0.05,111.85000000000002,0)" xlink:href="#aE"/><use transform="matrix(0.05,0,0,0.05,121.85000000000002,0)" xlink:href="#aD"/><use transform="matrix(0.05,0,0,0.05,131.85000000000002,0)" xlink:href="#aw"/><use transform="matrix(0.05,0,0,0.05,141.85000000000002,0)" xlink:href="#aH"/><use transform="matrix(0.05,0,0,0.05,147.8,0)" xlink:href="#aI"/><use transform="matrix(0.05,0,0,0.05,153.75,0)" xlink:href="#ax"/></g></defs></g></svg>